PathFileType	4	(X/Y/Z)	OpenSim_Sub06_EMGStiffKnee_Magnet.trc
DataRate	CameraRate	NumFrames	NumMarkers	Units	OrigDataRate	OrigDataStartFrame	OrigNumFrames
100	100	20	8	m	100	2717	5432
Frame#	Time	torso_imu_offset_imu	pelvis_imu_offset_imu	tibia_r_imu_offset_imu	femur_r_imu_offset_imu	tibia_l_imu_offset_imu	femur_l_imu_offset_imu	toes_r_imu_offset_imu	toes_l_imu_offset_imu
				X1	Y1	Z1	X2	Y2	Z2	X3	Y3	Z3	X4	Y4	Z4	X5	Y5	Z5	X6	Y6	Z6	X7	Y7	Z7	X8		Y8	Z8	

2717	27.16000000	-0.93383800	-0.09716800	0.06640600	-0.53784200	0.16552700	-0.73217800	-0.20019500	-0.75708000	-0.21704100	-0.73413100	-0.38208000	0.07592800	-0.66918900	0.44335900	0.05468800	-0.70581100	0.21606400	0.35864300	-0.67211900	-0.44287100	-0.12207000	-0.68066400	-0.08300800	-0.44238300
2718	27.17000000	-0.94262700	-0.09301800	0.06396500	-0.53613300	0.17602500	-0.73022500	-0.18115200	-0.76953100	-0.22338900	-0.74487300	-0.37377900	0.06860400	-0.66723600	0.44995100	0.05664100	-0.70166000	0.22705100	0.36303700	-0.66528300	-0.46533200	-0.08837900	-0.68042000	-0.08740200	-0.43994100
2719	27.18000000	-0.93823200	-0.09521500	0.06396500	-0.54272500	0.17822300	-0.72314500	-0.17065400	-0.76953100	-0.21875000	-0.75146500	-0.35937500	0.05883800	-0.66528300	0.45874000	0.05615200	-0.70190400	0.23120100	0.36059600	-0.65869100	-0.48168900	-0.05468800	-0.67578100	-0.09179700	-0.43554700
2720	27.19000000	-0.93603500	-0.09716800	0.06616200	-0.53662100	0.18872100	-0.72583000	-0.15795900	-0.77172900	-0.21875000	-0.75610400	-0.34082000	0.04907200	-0.66284200	0.45874000	0.06054700	-0.69995100	0.24218800	0.35376000	-0.64355500	-0.50634800	-0.01879900	-0.67797900	-0.09399400	-0.43774400
2721	27.20000000	-0.93823200	-0.09521500	0.06396500	-0.53466800	0.19702100	-0.72631800	-0.13916000	-0.77148400	-0.21630900	-0.76269500	-0.33032200	0.04858400	-0.66284200	0.45654300	0.06298800	-0.69604500	0.25732400	0.36035200	-0.63085900	-0.52050800	0.01049800	-0.67578100	-0.09399400	-0.43994100
2722	27.21000000	-0.93823200	-0.09521500	0.06396500	-0.53051800	0.19921900	-0.72387700	-0.13281200	-0.77587900	-0.21630900	-0.76733400	-0.31591800	0.04345700	-0.66503900	0.45874000	0.08081100	-0.69213900	0.26831100	0.36010700	-0.61572300	-0.53881800	0.03393600	-0.67773400	-0.09838900	-0.43554700
2723	27.22000000	-0.93823200	-0.09716800	0.06396500	-0.53247100	0.19921900	-0.72387700	-0.12890600	-0.76733400	-0.21655300	-0.77807600	-0.30566400	0.04077100	-0.66064500	0.45849600	0.08960000	-0.68969700	0.26611300	0.35571300	-0.60717800	-0.54882800	0.03198200	-0.67993200	-0.10278300	-0.43554700
2724	27.23000000	-0.93579100	-0.10351600	0.06445300	-0.52832000	0.20141600	-0.72631800	-0.12451200	-0.77368200	-0.21850600	-0.78051800	-0.29321300	0.04492200	-0.66040000	0.45629900	0.10083000	-0.68798800	0.27490200	0.36010700	-0.60498000	-0.55078100	0.00488300	-0.68212900	-0.10498000	-0.43994100
2725	27.24000000	-0.93164100	-0.10156200	0.06640600	-0.52856400	0.20776400	-0.72436500	-0.11621100	-0.77368200	-0.22070300	-0.78295900	-0.28295900	0.03759800	-0.66040000	0.45410200	0.10986300	-0.68164100	0.28369100	0.36889600	-0.59863300	-0.54834000	-0.03247100	-0.68652300	-0.10302700	-0.43090800
2726	27.25000000	-0.94018600	-0.10376000	0.06860400	-0.52636700	0.20556600	-0.72656200	-0.11645500	-0.76733400	-0.23437500	-0.78540000	-0.27050800	0.03027300	-0.66284200	0.46069300	0.11401400	-0.67724600	0.28369100	0.36669900	-0.59863300	-0.55224600	-0.05127000	-0.68432600	-0.10302700	-0.43335000
2727	27.26000000	-0.93164100	-0.10571300	0.07104500	-0.52856400	0.21191400	-0.72900400	-0.12475600	-0.76733400	-0.25439500	-0.79394500	-0.26635700	0.02319300	-0.65820300	0.45849600	0.11645500	-0.67724600	0.28588900	0.37353500	-0.59863300	-0.54614300	-0.06787100	-0.68872100	-0.10961900	-0.43335000
2728	27.27000000	-0.92919900	-0.11401400	0.06689500	-0.52636700	0.21191400	-0.73144500	-0.13134800	-0.75268600	-0.27734400	-0.79858400	-0.25390600	0.01586900	-0.64965800	0.46728500	0.11352500	-0.67089800	0.29467800	0.37329100	-0.59472700	-0.54174800	-0.09106400	-0.68627900	-0.10961900	-0.42871100
2729	27.28000000	-0.93115200	-0.11621100	0.06933600	-0.52026400	0.21826200	-0.72924800	-0.15063500	-0.74023400	-0.28906200	-0.80102500	-0.23950200	-0.00293000	-0.64965800	0.46728500	0.10913100	-0.67089800	0.29467800	0.37793000	-0.59472700	-0.53564500	-0.11181600	-0.69091800	-0.10961900	-0.42431600
2730	27.29000000	-0.92675800	-0.12255900	0.08056600	-0.52270500	0.22460900	-0.72485400	-0.17163100	-0.73168900	-0.30932600	-0.80542000	-0.23120100	-0.00341800	-0.65405300	0.46728500	0.10913100	-0.66894500	0.30346700	0.38012700	-0.60156200	-0.51513700	-0.14135700	-0.69287100	-0.11621100	-0.42431600
2731	27.30000000	-0.92871100	-0.12670900	0.07861300	-0.51611300	0.22241200	-0.73413100	-0.19726600	-0.71704100	-0.32348600	-0.80761700	-0.22485400	-0.01269500	-0.64746100	0.47168000	0.10888700	-0.66064500	0.31445300	0.37988300	-0.61010700	-0.50097700	-0.16235400	-0.69506800	-0.11401400	-0.42431600
2732	27.31000000	-0.93090800	-0.12890600	0.08300800	-0.51416000	0.23095700	-0.72973600	-0.22485400	-0.70874000	-0.32373000	-0.81005900	-0.21655300	-0.02221700	-0.65429700	0.47607400	0.10644500	-0.65869100	0.32299800	0.37304700	-0.62109400	-0.48461900	-0.18579100	-0.70190400	-0.11425800	-0.41967800
2733	27.32000000	-0.93286100	-0.13525400	0.08105500	-0.51416000	0.23095700	-0.72753900	-0.25878900	-0.69213900	-0.32446300	-0.81005900	-0.20825200	-0.03393600	-0.64770500	0.48046900	0.10839800	-0.65234400	0.32959000	0.37524400	-0.62353500	-0.46411100	-0.21313500	-0.69970700	-0.11401400	-0.41967800
2734	27.33000000	-0.92627000	-0.14160200	0.07910200	-0.50781200	0.23510700	-0.73681600	-0.29028300	-0.68383800	-0.32690400	-0.81469700	-0.19384800	-0.03906200	-0.64794900	0.48706100	0.11499000	-0.64819300	0.33837900	0.37963900	-0.62817400	-0.44165000	-0.23852500	-0.70629900	-0.11645500	-0.41748000
2735	27.34000000	-0.93042000	-0.14379900	0.08349600	-0.51001000	0.23510700	-0.73681600	-0.31176800	-0.66723600	-0.32519500	-0.81713900	-0.18750000	-0.04394500	-0.64794900	0.48486300	0.11718800	-0.64843800	0.34716800	0.37719700	-0.62451200	-0.42309600	-0.26586900	-0.70629900	-0.11425800	-0.41308600
2736	27.35000000	-0.92602500	-0.14575200	0.08374000	-0.49951200	0.24169900	-0.73706100	-0.34350600	-0.65478500	-0.33252000	-0.81323200	-0.17724600	-0.04199200	-0.64770500	0.48046900	0.12182600	-0.63989300	0.35156200	0.37500000	-0.62500000	-0.40454100	-0.29101600	-0.70410200	-0.11645500	-0.40844700
